name rise49.8558peak67.6521fall70.3087.mot
datacolumns 19
datarows 36
range 23.78324700000000 23.84157400000000
endheader
time	ground_force1_vx	ground_force1_vy	ground_force1_vz	ground_force1_px	ground_force1_py	ground_force1_pz	ground_force2_vx	ground_force2_vy	ground_force2_vz	ground_force2_px	ground_force2_py	ground_force2_pz	ground_torque1_x	ground_torque1_y	ground_torque1_z	ground_torque2_x	ground_torque2_y	ground_torque2_z	
23.78324700000000	-3.20626900000000	706.61310900000001	47.43063700000000	0.24701200000000	0.00000000000000	0.12505300000000	0.00000000000000	0.00000000000000	0.00000000000000	0.00000000000000	0.00000000000000	0.00000000000000	0.00000000000000	22.98499800000000	0.00000000000000	0.00000000000000	0.00000000000000	0.00000000000000	
23.78491200000000	-3.54130100000000	706.66305999999997	47.36798600000000	0.24641100000000	0.00000000000000	0.12503700000000	0.00000000000000	0.00000000000000	0.00000000000000	0.00000000000000	0.00000000000000	0.00000000000000	0.00000000000000	22.99139500000000	0.00000000000000	0.00000000000000	0.00000000000000	0.00000000000000	
23.78657800000000	-3.87468000000000	706.73974799999996	47.30780900000000	0.24582800000000	0.00000000000000	0.12501900000000	0.00000000000000	0.00000000000000	0.00000000000000	0.00000000000000	0.00000000000000	0.00000000000000	0.00000000000000	23.00114400000000	0.00000000000000	0.00000000000000	0.00000000000000	0.00000000000000	
23.78824200000000	-4.20700800000000	706.84171000000003	47.24997600000000	0.24526300000000	0.00000000000000	0.12500100000000	0.00000000000000	0.00000000000000	0.00000000000000	0.00000000000000	0.00000000000000	0.00000000000000	0.00000000000000	23.01418000000000	0.00000000000000	0.00000000000000	0.00000000000000	0.00000000000000	
23.78992700000000	-4.53890100000000	706.96750999999995	47.19437100000000	0.24471200000000	0.00000000000000	0.12498200000000	0.00000000000000	0.00000000000000	0.00000000000000	0.00000000000000	0.00000000000000	0.00000000000000	0.00000000000000	23.03044200000000	0.00000000000000	0.00000000000000	0.00000000000000	0.00000000000000	
23.79157900000000	-4.87098100000000	707.11574900000005	47.14088900000000	0.24417400000000	0.00000000000000	0.12496300000000	0.00000000000000	0.00000000000000	0.00000000000000	0.00000000000000	0.00000000000000	0.00000000000000	0.00000000000000	23.04987400000000	0.00000000000000	0.00000000000000	0.00000000000000	0.00000000000000	
23.79323900000000	-5.20387400000000	707.28506900000002	47.08944300000000	0.24364500000000	0.00000000000000	0.12494400000000	0.00000000000000	0.00000000000000	0.00000000000000	0.00000000000000	0.00000000000000	0.00000000000000	0.00000000000000	23.07242700000000	0.00000000000000	0.00000000000000	0.00000000000000	0.00000000000000	
23.79493000000000	-5.53820900000000	707.47416199999998	47.03995700000000	0.24312400000000	0.00000000000000	0.12492400000000	0.00000000000000	0.00000000000000	0.00000000000000	0.00000000000000	0.00000000000000	0.00000000000000	0.00000000000000	23.09805800000000	0.00000000000000	0.00000000000000	0.00000000000000	0.00000000000000	
23.79657400000000	-5.87461500000000	707.68177700000001	46.99237200000000	0.24260900000000	0.00000000000000	0.12490500000000	0.00000000000000	0.00000000000000	0.00000000000000	0.00000000000000	0.00000000000000	0.00000000000000	0.00000000000000	23.12672700000000	0.00000000000000	0.00000000000000	0.00000000000000	0.00000000000000	
23.79823900000000	-6.21371800000000	707.90672700000005	46.94664100000000	0.24209600000000	0.00000000000000	0.12488600000000	0.00000000000000	0.00000000000000	0.00000000000000	0.00000000000000	0.00000000000000	0.00000000000000	0.00000000000000	23.15840100000000	0.00000000000000	0.00000000000000	0.00000000000000	0.00000000000000	
23.79992000000000	-6.55614000000000	708.14789199999996	46.90273500000000	0.24158300000000	0.00000000000000	0.12486700000000	0.00000000000000	0.00000000000000	0.00000000000000	0.00000000000000	0.00000000000000	0.00000000000000	0.00000000000000	23.19305400000000	0.00000000000000	0.00000000000000	0.00000000000000	0.00000000000000	
23.80157600000000	-6.90249200000000	708.40422799999999	46.86063800000000	0.24106900000000	0.00000000000000	0.12484900000000	0.00000000000000	0.00000000000000	0.00000000000000	0.00000000000000	0.00000000000000	0.00000000000000	0.00000000000000	23.23066100000000	0.00000000000000	0.00000000000000	0.00000000000000	0.00000000000000	
23.80324300000000	-7.25337800000000	708.67477299999996	46.82034900000000	0.24055000000000	0.00000000000000	0.12483100000000	0.00000000000000	0.00000000000000	0.00000000000000	0.00000000000000	0.00000000000000	0.00000000000000	0.00000000000000	23.27120600000000	0.00000000000000	0.00000000000000	0.00000000000000	0.00000000000000	
23.80492800000000	-7.60938400000000	708.95864900000004	46.78188400000000	0.24002500000000	0.00000000000000	0.12481500000000	0.00000000000000	0.00000000000000	0.00000000000000	0.00000000000000	0.00000000000000	0.00000000000000	0.00000000000000	23.31467400000000	0.00000000000000	0.00000000000000	0.00000000000000	0.00000000000000	
23.80657500000000	-7.97108500000000	709.25506700000005	46.74527100000000	0.23949100000000	0.00000000000000	0.12479900000000	0.00000000000000	0.00000000000000	0.00000000000000	0.00000000000000	0.00000000000000	0.00000000000000	0.00000000000000	23.36105600000000	0.00000000000000	0.00000000000000	0.00000000000000	0.00000000000000	
23.80824000000000	-8.33903500000000	709.56333400000005	46.71055500000000	0.23894700000000	0.00000000000000	0.12478500000000	0.00000000000000	0.00000000000000	0.00000000000000	0.00000000000000	0.00000000000000	0.00000000000000	0.00000000000000	23.41034600000000	0.00000000000000	0.00000000000000	0.00000000000000	0.00000000000000	
23.80993100000000	-8.71376700000000	709.88285499999995	46.67779500000000	0.23839000000000	0.00000000000000	0.12477200000000	0.00000000000000	0.00000000000000	0.00000000000000	0.00000000000000	0.00000000000000	0.00000000000000	0.00000000000000	23.46254200000000	0.00000000000000	0.00000000000000	0.00000000000000	0.00000000000000	
23.81157200000000	-9.09579100000000	710.21313699999996	46.64706400000000	0.23781900000000	0.00000000000000	0.12476000000000	0.00000000000000	0.00000000000000	0.00000000000000	0.00000000000000	0.00000000000000	0.00000000000000	0.00000000000000	23.51764400000000	0.00000000000000	0.00000000000000	0.00000000000000	0.00000000000000	
23.81324300000000	-9.48559300000000	710.55378900000005	46.61845100000000	0.23723200000000	0.00000000000000	0.12474900000000	0.00000000000000	0.00000000000000	0.00000000000000	0.00000000000000	0.00000000000000	0.00000000000000	0.00000000000000	23.57565500000000	0.00000000000000	0.00000000000000	0.00000000000000	0.00000000000000	
23.81492800000000	-9.88362800000000	710.90452800000003	46.59205700000000	0.23662600000000	0.00000000000000	0.12474000000000	0.00000000000000	0.00000000000000	0.00000000000000	0.00000000000000	0.00000000000000	0.00000000000000	0.00000000000000	23.63658000000000	0.00000000000000	0.00000000000000	0.00000000000000	0.00000000000000	
23.81658100000000	-10.29032400000000	711.26517999999999	46.56799600000000	0.23600200000000	0.00000000000000	0.12473300000000	0.00000000000000	0.00000000000000	0.00000000000000	0.00000000000000	0.00000000000000	0.00000000000000	0.00000000000000	23.70042700000000	0.00000000000000	0.00000000000000	0.00000000000000	0.00000000000000	
23.81824500000000	-10.70607700000000	711.63567999999998	46.54639800000000	0.23535600000000	0.00000000000000	0.12472800000000	0.00000000000000	0.00000000000000	0.00000000000000	0.00000000000000	0.00000000000000	0.00000000000000	0.00000000000000	23.76720100000000	0.00000000000000	0.00000000000000	0.00000000000000	0.00000000000000	
23.81993100000000	-11.13124800000000	712.01607300000001	46.52740200000000	0.23468900000000	0.00000000000000	0.12472400000000	0.00000000000000	0.00000000000000	0.00000000000000	0.00000000000000	0.00000000000000	0.00000000000000	0.00000000000000	23.83691300000000	0.00000000000000	0.00000000000000	0.00000000000000	0.00000000000000	
23.82157400000000	-11.56616300000000	712.40651400000002	46.51116200000000	0.23399800000000	0.00000000000000	0.12472100000000	0.00000000000000	0.00000000000000	0.00000000000000	0.00000000000000	0.00000000000000	0.00000000000000	0.00000000000000	23.90956900000000	0.00000000000000	0.00000000000000	0.00000000000000	0.00000000000000	
23.82324000000000	-12.01111200000000	712.80727200000001	46.49784300000000	0.23328400000000	0.00000000000000	0.12472100000000	0.00000000000000	0.00000000000000	0.00000000000000	0.00000000000000	0.00000000000000	0.00000000000000	0.00000000000000	23.98517700000000	0.00000000000000	0.00000000000000	0.00000000000000	0.00000000000000	
23.82491400000000	-12.46634500000000	713.21872099999996	46.48762100000000	0.23254400000000	0.00000000000000	0.12472200000000	0.00000000000000	0.00000000000000	0.00000000000000	0.00000000000000	0.00000000000000	0.00000000000000	0.00000000000000	24.06374300000000	0.00000000000000	0.00000000000000	0.00000000000000	0.00000000000000	
23.82658300000000	-12.93207300000000	713.64134700000000	46.48068200000000	0.23177900000000	0.00000000000000	0.12472500000000	0.00000000000000	0.00000000000000	0.00000000000000	0.00000000000000	0.00000000000000	0.00000000000000	0.00000000000000	24.14527300000000	0.00000000000000	0.00000000000000	0.00000000000000	0.00000000000000	
23.82824200000000	-13.40846600000000	714.07574000000000	46.47722200000000	0.23098900000000	0.00000000000000	0.12473000000000	0.00000000000000	0.00000000000000	0.00000000000000	0.00000000000000	0.00000000000000	0.00000000000000	0.00000000000000	24.22976700000000	0.00000000000000	0.00000000000000	0.00000000000000	0.00000000000000	
23.82992700000000	-13.89565200000000	714.52259500000002	46.47744600000000	0.23017200000000	0.00000000000000	0.12473700000000	0.00000000000000	0.00000000000000	0.00000000000000	0.00000000000000	0.00000000000000	0.00000000000000	0.00000000000000	24.31722500000000	0.00000000000000	0.00000000000000	0.00000000000000	0.00000000000000	
23.83157300000000	-14.39371700000000	714.98270700000000	46.48156700000000	0.22932900000000	0.00000000000000	0.12474500000000	0.00000000000000	0.00000000000000	0.00000000000000	0.00000000000000	0.00000000000000	0.00000000000000	0.00000000000000	24.40764200000000	0.00000000000000	0.00000000000000	0.00000000000000	0.00000000000000	
23.83323900000000	-14.90270100000000	715.45696799999996	46.48980700000000	0.22845900000000	0.00000000000000	0.12475400000000	0.00000000000000	0.00000000000000	0.00000000000000	0.00000000000000	0.00000000000000	0.00000000000000	0.00000000000000	24.50101000000000	0.00000000000000	0.00000000000000	0.00000000000000	0.00000000000000	
23.83492300000000	-15.42260400000000	715.94636500000001	46.50239400000000	0.22756300000000	0.00000000000000	0.12476600000000	0.00000000000000	0.00000000000000	0.00000000000000	0.00000000000000	0.00000000000000	0.00000000000000	0.00000000000000	24.59731300000000	0.00000000000000	0.00000000000000	0.00000000000000	0.00000000000000	
23.83657800000000	-15.95337800000000	716.45197199999996	46.51956100000000	0.22664200000000	0.00000000000000	0.12477800000000	0.00000000000000	0.00000000000000	0.00000000000000	0.00000000000000	0.00000000000000	0.00000000000000	0.00000000000000	24.69653400000000	0.00000000000000	0.00000000000000	0.00000000000000	0.00000000000000	
23.83824800000000	-16.49493200000000	716.97494700000004	46.54154600000000	0.22569500000000	0.00000000000000	0.12479200000000	0.00000000000000	0.00000000000000	0.00000000000000	0.00000000000000	0.00000000000000	0.00000000000000	0.00000000000000	24.79864500000000	0.00000000000000	0.00000000000000	0.00000000000000	0.00000000000000	
23.83993100000000	-17.04713100000000	717.51652500000000	46.56859100000000	0.22472300000000	0.00000000000000	0.12480700000000	0.00000000000000	0.00000000000000	0.00000000000000	0.00000000000000	0.00000000000000	0.00000000000000	0.00000000000000	24.90361500000000	0.00000000000000	0.00000000000000	0.00000000000000	0.00000000000000	
23.84157400000000	-17.60979400000000	718.07801300000006	46.60094400000000	0.22372800000000	0.00000000000000	0.12482300000000	0.00000000000000	0.00000000000000	0.00000000000000	0.00000000000000	0.00000000000000	0.00000000000000	0.00000000000000	25.01140400000000	0.00000000000000	0.00000000000000	0.00000000000000	0.00000000000000	
